<mxfile host="65bd71144e">
    <diagram id="KnSYVmv9k0fi9aX2xPeK" name="第 1 页">
        <mxGraphModel dx="494" dy="610" grid="1" gridSize="10" guides="1" tooltips="1" connect="1" arrows="1" fold="1" page="1" pageScale="1" pageWidth="827" pageHeight="1169" math="0" shadow="0">
            <root>
                <mxCell id="0"/>
                <mxCell id="1" parent="0"/>
                <mxCell id="14" value="" style="group;fontSize=30;" vertex="1" connectable="0" parent="1">
                    <mxGeometry y="230" width="800" height="100" as="geometry"/>
                </mxCell>
                <mxCell id="2" value="" style="endArrow=classic;html=1;startArrow=none;exitX=1;exitY=0.5;exitDx=0;exitDy=0;" parent="14" source="6" edge="1">
                    <mxGeometry relative="1" as="geometry">
                        <mxPoint x="47.058823529411775" y="105.46875000000003" as="sourcePoint"/>
                        <mxPoint x="727.9411764705882" y="46.875000000000014" as="targetPoint"/>
                    </mxGeometry>
                </mxCell>
                <mxCell id="4" value="&lt;font style=&quot;font-size: 30px;&quot;&gt;ai&lt;/font&gt;" style="ellipse;whiteSpace=wrap;html=1;aspect=fixed;fillColor=#60a917;fontColor=#ffffff;strokeColor=#2D7600;" parent="14" vertex="1">
                    <mxGeometry x="188.235294117647" width="92.56152448830834" height="92.56152448830834" as="geometry"/>
                </mxCell>
                <mxCell id="7" value="" style="endArrow=none;html=1;startArrow=none;" parent="14" source="4" target="6" edge="1">
                    <mxGeometry relative="1" as="geometry">
                        <mxPoint x="282.35294117647055" y="105.46875000000003" as="sourcePoint"/>
                        <mxPoint x="705.8823529411762" y="105.46875000000003" as="targetPoint"/>
                    </mxGeometry>
                </mxCell>
                <mxCell id="6" value="&lt;font style=&quot;font-size: 30px;&quot;&gt;aj&lt;/font&gt;" style="ellipse;whiteSpace=wrap;html=1;aspect=fixed;fillColor=#60a917;fontColor=#ffffff;strokeColor=#2D7600;" parent="14" vertex="1">
                    <mxGeometry x="564.7058823529411" width="92.56152448830834" height="92.56152448830834" as="geometry"/>
                </mxCell>
                <mxCell id="8" value="an" style="ellipse;whiteSpace=wrap;html=1;aspect=fixed;fillColor=#d80073;fontColor=#ffffff;strokeColor=#A50040;" parent="14" vertex="1">
                    <mxGeometry x="329.41176470588226" width="92.56152448830834" height="92.56152448830834" as="geometry"/>
                </mxCell>
                <mxCell id="9" value="an" style="ellipse;whiteSpace=wrap;html=1;aspect=fixed;fillColor=#d80073;fontColor=#ffffff;strokeColor=#A50040;" parent="14" vertex="1">
                    <mxGeometry x="376.470588235294" width="92.56152448830834" height="92.56152448830834" as="geometry"/>
                </mxCell>
                <mxCell id="10" value="&lt;span style=&quot;font-size: 30px;&quot;&gt;an&lt;br&gt;&lt;/span&gt;" style="ellipse;whiteSpace=wrap;html=1;aspect=fixed;fillColor=#d80073;fontColor=#ffffff;strokeColor=#A50040;" parent="14" vertex="1">
                    <mxGeometry x="423.52941176470586" width="92.56152448830834" height="92.56152448830834" as="geometry"/>
                </mxCell>
                <mxCell id="11" value="&lt;font style=&quot;font-size: 30px;&quot;&gt;an&lt;/font&gt;" style="ellipse;whiteSpace=wrap;html=1;aspect=fixed;" parent="14" vertex="1">
                    <mxGeometry width="92.56152448830834" height="92.56152448830834" as="geometry"/>
                </mxCell>
                <mxCell id="5" value="" style="endArrow=none;html=1;exitX=1;exitY=0.5;exitDx=0;exitDy=0;" parent="14" target="4" edge="1" source="11">
                    <mxGeometry relative="1" as="geometry">
                        <mxPoint x="47.058823529411775" y="105.46875000000003" as="sourcePoint"/>
                        <mxPoint x="705.8823529411762" y="105.46875000000003" as="targetPoint"/>
                    </mxGeometry>
                </mxCell>
                <mxCell id="13" value="&lt;font style=&quot;font-size: 30px;&quot;&gt;an&lt;/font&gt;" style="ellipse;whiteSpace=wrap;html=1;aspect=fixed;" vertex="1" parent="14">
                    <mxGeometry x="705.8823529411764" width="92.56152448830834" height="92.56152448830834" as="geometry"/>
                </mxCell>
            </root>
        </mxGraphModel>
    </diagram>
</mxfile>